<svg id="图层_1" data-name="图层 1" xmlns="http://www.w3.org/2000/svg" viewBox="0 0 622.68 178.36"><defs><style>.cls-1{fill:#fff;}</style></defs><title>logo</title><path class="cls-1" d="M180.25,270.75V267l38-29.23V213.38l-36.51,1L165.38,205,149,214.42l-36.51-1v24.38l38,29.23v3.76h7.22v6.61h-.07a7.22,7.22,0,0,0-7.22,7.22v1.09h7.29v51.49H145.31a7.2,7.2,0,0,1-7.2-7.2v-.08h7.4V317.71h-20.8V318a62.92,62.92,0,0,0,20,46l4.85,4.53V358a8.05,8.05,0,0,1,8.05-8.05l.08,3.1v12.78a23.82,23.82,0,0,0,7.58,17.42l.08.07.08-.07A23.82,23.82,0,0,0,173,365.78V285.67h.07a7.22,7.22,0,0,0,7.22-7.22v-1.09H173v-6.61Zm-14.87-54.42,8,4-8,5.35-8-5.35Zm0,33.52-13.78,3.89-27.78-21.52v-6.43l25.07,1,16.49,8.88,16.49-8.88,25.07-1v6.43l-27.78,21.52Z" transform="translate(-112.52 -205)"/><path class="cls-1" d="M253.23,288.7h56.94a46.57,46.57,0,0,1-2,7.12,24.32,24.32,0,0,1-3.49,6.43,18.21,18.21,0,0,1-5.34,4.72,14.32,14.32,0,0,1-7.39,1.85H234.2V252.38q0-1,.07-4.37a38.88,38.88,0,0,1,1.1-7.86,46.46,46.46,0,0,1,3.35-9.36,30.1,30.1,0,0,1,6.78-9.09,34.59,34.59,0,0,1,11.36-6.83q6.91-2.67,17.18-2.67h36a53.7,53.7,0,0,1-1.92,7.14,25.66,25.66,0,0,1-3.36,6.59,16.93,16.93,0,0,1-5.2,4.83,14,14,0,0,1-7.32,1.84H274.17a27.15,27.15,0,0,0-10.47,1.71,15.23,15.23,0,0,0-6.37,4.79,18.18,18.18,0,0,0-3.22,7.39,47.82,47.82,0,0,0-.89,9.65Z" transform="translate(-112.52 -205)"/><path class="cls-1" d="M395.46,211.92v78.69a15.67,15.67,0,0,1-1.64,7.46,16.81,16.81,0,0,1-4.38,5.27,22.62,22.62,0,0,1-6.16,3.49,41.9,41.9,0,0,1-7,2V278H338.1v12.72a15.32,15.32,0,0,1-6,12.66,23.64,23.64,0,0,1-6.16,3.42,41.75,41.75,0,0,1-7,2V251.89q0-10.26,2.74-17.25a36,36,0,0,1,6.84-11.43,29.11,29.11,0,0,1,9.1-6.78,48.33,48.33,0,0,1,9.44-3.36,39.32,39.32,0,0,1,7.87-1.09l4.38-.07Zm-19.16,45.72V232.32H361.78a48.11,48.11,0,0,0-9.65.89,18.79,18.79,0,0,0-7.46,3.2,14.79,14.79,0,0,0-4.86,6.4,26.94,26.94,0,0,0-1.71,10.35v4.49Z" transform="translate(-112.52 -205)"/><path class="cls-1" d="M483.2,212.06v78.7a15.68,15.68,0,0,1-1.64,7.46,16.12,16.12,0,0,1-4.38,5.2,23.77,23.77,0,0,1-6.16,3.42,41.44,41.44,0,0,1-7,2V231.08H449.52a48,48,0,0,0-9.65.89,18.75,18.75,0,0,0-7.46,3.22,14.92,14.92,0,0,0-4.86,6.43,27.2,27.2,0,0,0-1.71,10.4v38.86a15.66,15.66,0,0,1-1.64,7.46,16.06,16.06,0,0,1-4.38,5.2,22.32,22.32,0,0,1-6.16,3.35,46.19,46.19,0,0,1-7,1.92V252q0-10.27,2.74-17.25a36.06,36.06,0,0,1,6.84-11.43,29.08,29.08,0,0,1,9.1-6.78,48.33,48.33,0,0,1,9.44-3.35,39,39,0,0,1,7.87-1.1q3.42-.07,4.38-.07Z" transform="translate(-112.52 -205)"/><path class="cls-1" d="M647.32,212.06v65.29c0,6.3-.78,6.9-2.33,11.14a30.88,30.88,0,0,1-6,10.33,26.47,26.47,0,0,1-8,6.09,36,36,0,0,1-8.35,2.94,40,40,0,0,1-7.12.89c-2.1,0-3.56.07-4.38.07H571.08V251.89a43.13,43.13,0,0,1,2.74-16.29,36.81,36.81,0,0,1,6.85-11.16,31.48,31.48,0,0,1,9-6.91,51.89,51.89,0,0,1,9.44-3.69,44.05,44.05,0,0,1,7.87-1.51q3.35-.27,4.31-.27Zm-19,20.4H610.36q-.82,0-4,.41a20.22,20.22,0,0,0-6.84,2.32,18.93,18.93,0,0,0-6.5,5.94q-2.88,4-2.87,11.27v36h20.12c.55,0,1.8,0,3.77-.14a15.16,15.16,0,0,0,11.84-7.1c1.64-2.46,2.46-1.39,2.46-6.12Z" transform="translate(-112.52 -205)"/><path class="cls-1" d="M734.66,212.06v78.7a15.68,15.68,0,0,1-1.64,7.46,16.07,16.07,0,0,1-4.38,5.2,23.79,23.79,0,0,1-6.16,3.42,41.63,41.63,0,0,1-7,2V231.08H701a47.93,47.93,0,0,0-9.65.89,18.75,18.75,0,0,0-7.46,3.22,14.89,14.89,0,0,0-4.86,6.43A27.2,27.2,0,0,0,677.3,252v38.86a15.65,15.65,0,0,1-1.64,7.46,16.06,16.06,0,0,1-4.38,5.2,22.33,22.33,0,0,1-6.16,3.35,46.2,46.2,0,0,1-7,1.92V252q0-10.27,2.74-17.25a36.09,36.09,0,0,1,6.85-11.43,29,29,0,0,1,9.1-6.78,48.24,48.24,0,0,1,9.44-3.35,39,39,0,0,1,7.87-1.1q3.42-.07,4.38-.07Z" transform="translate(-112.52 -205)"/><path class="cls-1" d="M279.27,367a9.58,9.58,0,0,1,3.23,3.53,10.07,10.07,0,0,1,1.08,4.13,14.68,14.68,0,0,1-.52,4.39,27.75,27.75,0,0,1-1.55,4.31l-19.47-14q-.69-.52-2.41-1.77l-4-2.89q-2.24-1.64-4.82-3.45t-4.91-3.53h-.09v5.34c0,.86,0,1.57,0,2.11s0,1.1,0,1.68v5a9.84,9.84,0,0,1-1,4.69,10.28,10.28,0,0,1-2.71,3.27,14.18,14.18,0,0,1-3.83,2.16,26.42,26.42,0,0,1-4.39,1.25V344.51a27.4,27.4,0,0,1,1.72-10.34,23.08,23.08,0,0,1,4.31-7,19.56,19.56,0,0,1,5.73-4.35,34.2,34.2,0,0,1,5.94-2.33,26.72,26.72,0,0,1,5-.95q2.15-.17,2.76-.17h22.74v.43c0,.23,0,.66,0,1.29s0,1.62,0,3v14.08a22.38,22.38,0,0,1-1.51,8.83,16.63,16.63,0,0,1-3.88,5.68,16,16,0,0,1-5.17,3.27,23.72,23.72,0,0,1-5.38,1.42l3.19,2.33,4.61,3.27q2.54,1.81,5.56,4m-19.21-20.41q.52,0,2.37-.22a14.75,14.75,0,0,0,3.88-1,10.08,10.08,0,0,0,3.57-2.46,6.37,6.37,0,0,0,1.55-4.56v-8H260.15c-.34,0-1.28.09-2.8.26a15.79,15.79,0,0,0-4.87,1.46,12.86,12.86,0,0,0-4.61,3.75,11.14,11.14,0,0,0-2,7.11v3.7h14.21Z" transform="translate(-112.52 -205)"/><path class="cls-1" d="M338.17,370.44a28.11,28.11,0,0,1-1.29,4.55,16.29,16.29,0,0,1-2.24,4.12,11.54,11.54,0,0,1-3.36,3,9,9,0,0,1-4.65,1.17H290.37v-38.5c0-.4,0-1.32,0-2.75a24.4,24.4,0,0,1,.69-5,29.34,29.34,0,0,1,2.11-5.9,19,19,0,0,1,4.26-5.73,21.72,21.72,0,0,1,7.15-4.3,30.19,30.19,0,0,1,10.81-1.68h22.65a29.19,29.19,0,0,1-1.25,4.48,17.72,17.72,0,0,1-2.16,4.14,10.73,10.73,0,0,1-3.27,3.06,8.79,8.79,0,0,1-4.61,1.16H315.43a17.67,17.67,0,0,0-6.07.9,9.73,9.73,0,0,0-4,2.58,10.27,10.27,0,0,0-2.2,4,23.08,23.08,0,0,0-.86,5.17h29.89a31.71,31.71,0,0,1-1.21,4.7,14.28,14.28,0,0,1-2.15,4.09,11.21,11.21,0,0,1-3.31,2.93,9.26,9.26,0,0,1-4.7,1.12h-18.6v12.66Z" transform="translate(-112.52 -205)"/><path class="cls-1" d="M389.95,344.86v3.2q0,2.07,0,4.14t0,3.71v5.22a28.84,28.84,0,0,1-.52,5.14,24.88,24.88,0,0,1-1.89,5.87,16.09,16.09,0,0,1-4.22,5.48,22.63,22.63,0,0,1-7.37,4.06,34.39,34.39,0,0,1-11.33,1.6H341.8a30.49,30.49,0,0,1,1.25-4.55,16,16,0,0,1,2.16-4.12,11.15,11.15,0,0,1,3.27-3,8.72,8.72,0,0,1,4.61-1.17h13q4.74,0,7.19-2a11.46,11.46,0,0,0,3.49-4.37,15.28,15.28,0,0,0,1.12-6.42H359.45q-7.84,0-17.57-.09V341.41a28.38,28.38,0,0,1,.52-5.13,24.91,24.91,0,0,1,1.9-5.81,16,16,0,0,1,4.22-5.47,22.7,22.7,0,0,1,7.37-4,34.48,34.48,0,0,1,11.33-1.59h22.74a29.29,29.29,0,0,1-1.25,4.48,16,16,0,0,1-2.16,4,11.16,11.16,0,0,1-3.27,3,8.77,8.77,0,0,1-4.61,1.16h-13a13.92,13.92,0,0,0-4.18.56,11.31,11.31,0,0,0-3.06,1.45,8.49,8.49,0,0,0-2.11,2.06,12.86,12.86,0,0,0-1.34,2.35,15.21,15.21,0,0,0-1.12,6.42Z" transform="translate(-112.52 -205)"/><path class="cls-1" d="M410.05,319.27v52.54a9.85,9.85,0,0,1-1,4.69,10.5,10.5,0,0,1-2.76,3.32,14.16,14.16,0,0,1-3.88,2.2,27.14,27.14,0,0,1-4.3,1.25V330.64a10,10,0,0,1,1-4.65,10.25,10.25,0,0,1,2.72-3.32,14.31,14.31,0,0,1,3.83-2.15,26.61,26.61,0,0,1,4.39-1.25" transform="translate(-112.52 -205)"/><path class="cls-1" d="M466.3,344.86v3.2q0,2.07,0,4.14t0,3.71v5.22a29.1,29.1,0,0,1-.52,5.14,24.79,24.79,0,0,1-1.89,5.87,16.1,16.1,0,0,1-4.22,5.48,22.6,22.6,0,0,1-7.37,4.06,34.39,34.39,0,0,1-11.33,1.6H418.15a30.61,30.61,0,0,1,1.25-4.55,16,16,0,0,1,2.15-4.12,11.2,11.2,0,0,1,3.27-3,8.74,8.74,0,0,1,4.61-1.17h13q4.74,0,7.19-2a11.46,11.46,0,0,0,3.49-4.37,15.26,15.26,0,0,0,1.12-6.42H435.81q-7.84,0-17.57-.09V341.41a28.39,28.39,0,0,1,.52-5.13,25.05,25.05,0,0,1,1.89-5.81,16.07,16.07,0,0,1,4.22-5.47,22.73,22.73,0,0,1,7.36-4,34.5,34.5,0,0,1,11.33-1.59H466.3a29.52,29.52,0,0,1-1.25,4.48,16.12,16.12,0,0,1-2.16,4,11.16,11.16,0,0,1-3.27,3A8.77,8.77,0,0,1,455,332H442a13.93,13.93,0,0,0-4.18.56,11.29,11.29,0,0,0-3.06,1.45,8.43,8.43,0,0,0-2.11,2.06,12.91,12.91,0,0,0-1.33,2.35,15.21,15.21,0,0,0-1.12,6.42Z" transform="translate(-112.52 -205)"/><path class="cls-1" d="M519.91,319.27a26.68,26.68,0,0,1-1.25,4.39,14.31,14.31,0,0,1-2.16,3.83,10.26,10.26,0,0,1-3.31,2.71,10,10,0,0,1-4.65,1h-8.18V371.9a9.85,9.85,0,0,1-1,4.69,10.34,10.34,0,0,1-2.71,3.27,14.17,14.17,0,0,1-3.83,2.15,26.37,26.37,0,0,1-4.39,1.25v-52H471.93a26.91,26.91,0,0,1,1.25-4.3,14.9,14.9,0,0,1,2.15-3.88,10.08,10.08,0,0,1,3.27-2.76,9.86,9.86,0,0,1,4.69-1h36.61Z" transform="translate(-112.52 -205)"/><path class="cls-1" d="M567.24,211.92a40.4,40.4,0,0,1-1.89,6.65,21.66,21.66,0,0,1-3.26,5.8,15.53,15.53,0,0,1-5,4.11,15.07,15.07,0,0,1-7,1.56H537.63v61.56a14.92,14.92,0,0,1-1.56,7.1,15.65,15.65,0,0,1-4.11,5,21.45,21.45,0,0,1-5.8,3.26,39.93,39.93,0,0,1-6.65,1.89V230H494.6a40.74,40.74,0,0,1,1.89-6.52,22.55,22.55,0,0,1,3.26-5.87,15.26,15.26,0,0,1,5-4.17,14.93,14.93,0,0,1,7.11-1.57h55.43Z" transform="translate(-112.52 -205)"/><path class="cls-1" d="M569,319.36v52.46a9.85,9.85,0,0,1-1,4.69,10.55,10.55,0,0,1-2.76,3.31,14.22,14.22,0,0,1-3.88,2.2,26.23,26.23,0,0,1-4.39,1.25V361h-24V371.9a9.65,9.65,0,0,1-3.79,8,14.91,14.91,0,0,1-3.87,2.15,26.25,26.25,0,0,1-4.4,1.25V344.51a29.87,29.87,0,0,1,1.72-10.85,22.74,22.74,0,0,1,4.31-7.19,18.31,18.31,0,0,1,5.73-4.26,30.47,30.47,0,0,1,5.94-2.11,24.53,24.53,0,0,1,5-.69l2.76,0ZM557,348.13V332.19h-9.13a30.37,30.37,0,0,0-6.07.56,11.83,11.83,0,0,0-4.69,2,9.31,9.31,0,0,0-3.06,4,16.92,16.92,0,0,0-1.08,6.51v2.83Z" transform="translate(-112.52 -205)"/><path class="cls-1" d="M625.25,319.45V371.9a9.86,9.86,0,0,1-1,4.69,10.1,10.1,0,0,1-2.76,3.27,14.94,14.94,0,0,1-3.87,2.15,26.46,26.46,0,0,1-4.39,1.25V331.42h-9.13A30.41,30.41,0,0,0,598,332a11.85,11.85,0,0,0-4.69,2,9.39,9.39,0,0,0-3.06,4,17.13,17.13,0,0,0-1.08,6.55V372a9.84,9.84,0,0,1-1,4.69,10.09,10.09,0,0,1-2.75,3.27,14,14,0,0,1-3.88,2.11,29.19,29.19,0,0,1-4.39,1.21V344.6a29.79,29.79,0,0,1,1.72-10.85,22.62,22.62,0,0,1,4.3-7.19,18.28,18.28,0,0,1,5.73-4.26,30.24,30.24,0,0,1,5.94-2.11,24.55,24.55,0,0,1,5-.69l2.76,0Z" transform="translate(-112.52 -205)"/><path class="cls-1" d="M645.6,370.61h35.83a29,29,0,0,1-1.25,4.48,15.3,15.3,0,0,1-2.19,4,11.55,11.55,0,0,1-3.36,3,9,9,0,0,1-4.65,1.16H633.63V344.82q0-.6,0-2.75a24.25,24.25,0,0,1,.69-4.95,29.38,29.38,0,0,1,2.11-5.89,18.91,18.91,0,0,1,4.26-5.72,21.7,21.7,0,0,1,7.15-4.3,30.22,30.22,0,0,1,10.81-1.68h22.65a33.69,33.69,0,0,1-1.21,4.49,16.14,16.14,0,0,1-2.11,4.15,10.68,10.68,0,0,1-3.27,3,8.83,8.83,0,0,1-4.61,1.15H658.78a17.05,17.05,0,0,0-6.59,1.08,9.55,9.55,0,0,0-4,3,11.37,11.37,0,0,0-2,4.65,30.24,30.24,0,0,0-.56,6.07Z" transform="translate(-112.52 -205)"/><path class="cls-1" d="M735.2,370.44a27.79,27.79,0,0,1-1.29,4.55,16.19,16.19,0,0,1-2.24,4.12,11.58,11.58,0,0,1-3.36,3,9,9,0,0,1-4.65,1.17H687.39v-38.5q0-.6,0-2.75a24.28,24.28,0,0,1,.69-5,29.47,29.47,0,0,1,2.11-5.9,19,19,0,0,1,4.26-5.73,21.71,21.71,0,0,1,7.15-4.3,30.18,30.18,0,0,1,10.81-1.68h22.65a29,29,0,0,1-1.25,4.48,17.79,17.79,0,0,1-2.15,4.14,10.69,10.69,0,0,1-3.27,3.06,8.79,8.79,0,0,1-4.61,1.16H712.46a17.65,17.65,0,0,0-6.07.9,9.7,9.7,0,0,0-4,2.58,10.3,10.3,0,0,0-2.2,4,23.14,23.14,0,0,0-.86,5.17h29.89a32.44,32.44,0,0,1-1.21,4.7,14.38,14.38,0,0,1-2.15,4.09,11.18,11.18,0,0,1-3.32,2.93,9.26,9.26,0,0,1-4.69,1.12H699.28v12.66Z" transform="translate(-112.52 -205)"/></svg>