<svg id="图层_1" data-name="图层 1" xmlns="http://www.w3.org/2000/svg" viewBox="0 0 740.47 490.29"><defs><style>.cls-1{fill:#fff;}</style></defs><title>cantonres</title><path class="cls-1" d="M382.63,542.78l-73.21-67.3A174.46,174.46,0,0,1,279,438a61.35,61.35,0,0,1-5.73,2.35,66.88,66.88,0,0,1-22.55,3.52H190.41l-8.06,17.62-24.57-17.62-11.33-8.11-3.24,2a48.68,48.68,0,0,1-5.81,2.65,60.12,60.12,0,0,1-10,2.85L87.3,451V371.4q0-1,0-2H50.71V279.27c0-.74,0-2.43.08-5.05a71.55,71.55,0,0,1,2-14.77,80.23,80.23,0,0,1,5.72-16.18A63.82,63.82,0,0,1,72.66,224,68.11,68.11,0,0,1,94.94,210.3c8.58-3.32,18.18-4.93,29.32-4.93h76.39q1.94-.16,3.83-.2c2.65-.05,4.33-.07,5.06-.07h46.32L225.9,182V75.67l107.65,3L379.07,52.5l45.52,26.22,111.23-3V182l-30.14,23.19h25.59v1.52c2.06-.42,4.05-.74,6-1l-.55-1H773.29L711,312.71h14.24l.54,0c.62,0,1.25-.06,1.9-.06h63.47l-7.71,40.08a62.11,62.11,0,0,1-2.69,9.68c-.15.41-.3.82-.47,1.23h10.9l-7.65,40a61.82,61.82,0,0,1-2.84,10.07,50,50,0,0,1-6.93,12.63A45.06,45.06,0,0,1,760.68,438a42.82,42.82,0,0,1-21.8,5.86H635.62L598.7,451V444L562.61,451V447.3L543.49,451V444L507.4,451v-6.06L475.89,451v-8a77.61,77.61,0,0,1-11.78.85H433.65v10.9a87.85,87.85,0,0,1-27.85,64l-.25.23ZM163.89,424.84l10.77,7.72,3.53-7.72h72.56A48.3,48.3,0,0,0,267,422.41a39,39,0,0,0,10-5.18l8.86-6.45,5.14,9.68a156.27,156.27,0,0,0,31.44,41.1l60.23,55.2,10.26-11.94a68.7,68.7,0,0,0,21.73-50.05V427.19l11.7-2.35h37.79a48.31,48.31,0,0,0,16.21-2.43c.24-.09.48-.19.71-.29l.87-.36,13-5.14v11.31l17.45-3.36c.54-.1,1.08-.25,1.62-.38l12.43-3.11v6.86l17.45-3.36a41.2,41.2,0,0,0,5.94-1.62l12.7-4.5v9.47l19.12-3.68v3.68l17.45-3.36a44.45,44.45,0,0,0,6-1.61l12.61-4.33v9.3l16.08-3.09H738.88A23.79,23.79,0,0,0,751,421.62a26.13,26.13,0,0,0,7.59-6.76,31,31,0,0,0,4.28-7.82,42.77,42.77,0,0,0,2-7l3.33-17.44H757.45l4.34-24.14.42-1q.35-.82.66-1.66a43.34,43.34,0,0,0,1.87-6.74l3.36-17.46H727.68c-.32,0-.62,0-.92,0l-1.06,0H678l62.29-107.89H569.72l.24.42H548.74q-1,0-4.67.07a53.18,53.18,0,0,0-10.89,1.47,59.28,59.28,0,0,0-8,2.52l-13,5v-9.09H449.74l67-51.6V95.25l-97,2.64L379.07,74.46,338.39,97.89l-93.46-2.64v77.42l63.51,48.88-22,3.37c-1.67.25-3.21.55-4.71.89a59.12,59.12,0,0,0-8.35,2.65l-13,5.15v-9.48H209.54q-1,0-4.68.07A53.31,53.31,0,0,0,194,225.67c-.74.17-1.5.38-2.25.59l-14.85,4.15,1.17-6H124.26c-8.75,0-16.1,1.19-22.46,3.65a49.24,49.24,0,0,0-16.12,9.82,44.92,44.92,0,0,0-10,13.53,61.2,61.2,0,0,0-4.38,12.33,53,53,0,0,0-1.47,10.87c0,2.43-.07,4-.07,4.67v71.12h39.91l-2.36,11.44a47.5,47.5,0,0,0-1,9.57v56.53l17.45-3.36a41.09,41.09,0,0,0,6.85-1.95,28.84,28.84,0,0,0,7.75-4.39c.51-.41,1-.83,1.47-1.26l5.7-5.29,16.69,12Z" transform="translate(-50.71 -52.5)"/><path class="cls-1" d="M415.21,242.58v-8.49L501.06,168V112.93l-82.52,2.34L381.6,94l-36.95,21.29-82.52-2.34V168L348,234.09v8.49H364.3v14.94h-.16a16.31,16.31,0,0,0-16.31,16.31v2.47H364.3V392.68H336.23A16.26,16.26,0,0,1,320,376.42v-.19H336.7V348.72h-47v.65a142.22,142.22,0,0,0,45.25,104l11,10.23v-24a18.2,18.2,0,0,1,18.2-18.2l.18,7v28.88a53.84,53.84,0,0,0,17.13,39.38l.17.16.17-.16a53.83,53.83,0,0,0,17.13-39.38v-181h.17A16.31,16.31,0,0,0,415.37,260v-2.47H398.9V242.58Zm-33.61-123,18.1,9.11-18.1,12.09-18.1-12.09Zm0,75.77-31.14,8.79L287.68,155.5V141l56.65,2.33,37.26,20.06,37.26-20.06L475.51,141V155.5l-62.78,48.64Z" transform="translate(-50.71 -52.5)"/><path class="cls-1" d="M106,318.16h56.94a46.57,46.57,0,0,1-2,7.12,24.32,24.32,0,0,1-3.49,6.43,18.21,18.21,0,0,1-5.34,4.72,14.32,14.32,0,0,1-7.39,1.85H87V281.85q0-1,.07-4.37a38.88,38.88,0,0,1,1.1-7.86,46.46,46.46,0,0,1,3.35-9.36,30.1,30.1,0,0,1,6.78-9.09,34.59,34.59,0,0,1,11.36-6.83q6.91-2.67,17.18-2.67h36a53.7,53.7,0,0,1-1.92,7.14,25.66,25.66,0,0,1-3.36,6.59,16.93,16.93,0,0,1-5.2,4.83,14,14,0,0,1-7.32,1.84H126.92a27.15,27.15,0,0,0-10.47,1.71,15.23,15.23,0,0,0-6.37,4.79,18.18,18.18,0,0,0-3.22,7.39,47.82,47.82,0,0,0-.89,9.65Z" transform="translate(-50.71 -52.5)"/><path class="cls-1" d="M248.21,241.39v78.69a15.67,15.67,0,0,1-1.64,7.46,16.81,16.81,0,0,1-4.38,5.27A22.62,22.62,0,0,1,236,336.3a41.9,41.9,0,0,1-7,2V307.5H190.85v12.72a15.32,15.32,0,0,1-6,12.66,23.64,23.64,0,0,1-6.16,3.42,41.75,41.75,0,0,1-7,2V281.35q0-10.26,2.74-17.25a36,36,0,0,1,6.84-11.43,29.11,29.11,0,0,1,9.1-6.78,48.33,48.33,0,0,1,9.44-3.36,39.32,39.32,0,0,1,7.87-1.09l4.38-.07ZM229,287.1V261.78H214.53a48.11,48.11,0,0,0-9.65.89,18.79,18.79,0,0,0-7.46,3.2,14.79,14.79,0,0,0-4.86,6.4,26.94,26.94,0,0,0-1.71,10.35v4.49Z" transform="translate(-50.71 -52.5)"/><path class="cls-1" d="M335.95,241.52v78.7a15.68,15.68,0,0,1-1.64,7.46,16.12,16.12,0,0,1-4.38,5.2,23.77,23.77,0,0,1-6.16,3.42,41.44,41.44,0,0,1-7,2V260.55H302.27a48,48,0,0,0-9.65.89,18.75,18.75,0,0,0-7.46,3.22,14.92,14.92,0,0,0-4.86,6.43,27.2,27.2,0,0,0-1.71,10.4v38.86a15.66,15.66,0,0,1-1.64,7.46,16.06,16.06,0,0,1-4.38,5.2,22.32,22.32,0,0,1-6.16,3.35,46.19,46.19,0,0,1-7,1.92V281.49q0-10.27,2.74-17.25A36.06,36.06,0,0,1,269,252.82a29.08,29.08,0,0,1,9.1-6.78,48.33,48.33,0,0,1,9.44-3.35,39,39,0,0,1,7.87-1.1q3.42-.07,4.38-.07Z" transform="translate(-50.71 -52.5)"/><path class="cls-1" d="M500.07,241.52v65.29c0,6.3-.78,6.9-2.33,11.14a30.88,30.88,0,0,1-6,10.33,26.47,26.47,0,0,1-8,6.09,36,36,0,0,1-8.35,2.94,40,40,0,0,1-7.12.89c-2.1,0-3.56.07-4.38.07H423.83V281.35a43.13,43.13,0,0,1,2.74-16.29,36.81,36.81,0,0,1,6.85-11.16,31.48,31.48,0,0,1,9-6.91,51.89,51.89,0,0,1,9.44-3.69,44.05,44.05,0,0,1,7.87-1.51q3.35-.27,4.31-.27Zm-19,20.4H463.11q-.82,0-4,.41a20.22,20.22,0,0,0-6.84,2.32,18.93,18.93,0,0,0-6.5,5.94q-2.88,4-2.87,11.27v36H463c.55,0,1.8,0,3.77-.14a15.16,15.16,0,0,0,11.84-7.1c1.64-2.46,2.46-1.39,2.46-6.12Z" transform="translate(-50.71 -52.5)"/><path class="cls-1" d="M587.4,241.52v78.7a15.68,15.68,0,0,1-1.64,7.46,16.07,16.07,0,0,1-4.38,5.2,23.79,23.79,0,0,1-6.16,3.42,41.63,41.63,0,0,1-7,2V260.55H553.73a47.93,47.93,0,0,0-9.65.89,18.75,18.75,0,0,0-7.46,3.22,14.89,14.89,0,0,0-4.86,6.43,27.2,27.2,0,0,0-1.71,10.4v38.86a15.65,15.65,0,0,1-1.64,7.46A16.06,16.06,0,0,1,524,333a22.33,22.33,0,0,1-6.16,3.35,46.2,46.2,0,0,1-7,1.92V281.49q0-10.27,2.74-17.25a36.09,36.09,0,0,1,6.85-11.43,29,29,0,0,1,9.1-6.78,48.24,48.24,0,0,1,9.44-3.35,39,39,0,0,1,7.87-1.1q3.42-.07,4.38-.07Z" transform="translate(-50.71 -52.5)"/><path class="cls-1" d="M613,317.34v6.71a12.73,12.73,0,0,1-4.93,10.47,19.61,19.61,0,0,1-5,2.81,31.92,31.92,0,0,1-5.68,1.64v-6.7a13.06,13.06,0,0,1,1.37-6.16,13.2,13.2,0,0,1,3.56-4.31,19.65,19.65,0,0,1,5-2.81,32.16,32.16,0,0,1,5.68-1.64" transform="translate(-50.71 -52.5)"/><path class="cls-1" d="M169,396.46a9.58,9.58,0,0,1,3.23,3.53,10.07,10.07,0,0,1,1.08,4.13,14.68,14.68,0,0,1-.52,4.39,27.75,27.75,0,0,1-1.55,4.31l-19.47-14q-.69-.52-2.41-1.77l-4-2.89q-2.24-1.64-4.82-3.45t-4.91-3.53h-.09v5.34c0,.86,0,1.57,0,2.11s0,1.1,0,1.68v5a9.84,9.84,0,0,1-1,4.69,10.28,10.28,0,0,1-2.71,3.27,14.18,14.18,0,0,1-3.83,2.16,26.42,26.42,0,0,1-4.39,1.25V374a27.4,27.4,0,0,1,1.72-10.34,23.08,23.08,0,0,1,4.31-7,19.56,19.56,0,0,1,5.73-4.35,34.2,34.2,0,0,1,5.94-2.33,26.72,26.72,0,0,1,5-.95q2.15-.17,2.76-.17h22.74v.43c0,.23,0,.66,0,1.29s0,1.62,0,3V367.6a22.38,22.38,0,0,1-1.51,8.83,16.63,16.63,0,0,1-3.88,5.68,16,16,0,0,1-5.17,3.27,23.72,23.72,0,0,1-5.38,1.42l3.19,2.33,4.61,3.27q2.54,1.81,5.56,4M149.81,376q.52,0,2.37-.22a14.75,14.75,0,0,0,3.88-1,10.08,10.08,0,0,0,3.57-2.46,6.37,6.37,0,0,0,1.55-4.56v-8H149.9c-.34,0-1.28.09-2.8.26a15.79,15.79,0,0,0-4.87,1.46,12.86,12.86,0,0,0-4.61,3.75,11.14,11.14,0,0,0-2,7.11V376h14.21Z" transform="translate(-50.71 -52.5)"/><path class="cls-1" d="M227.26,399.9a28.11,28.11,0,0,1-1.29,4.55,16.29,16.29,0,0,1-2.24,4.12,11.54,11.54,0,0,1-3.36,3,9,9,0,0,1-4.65,1.17H179.45v-38.5c0-.4,0-1.32,0-2.75a24.4,24.4,0,0,1,.69-5,29.34,29.34,0,0,1,2.11-5.9,19,19,0,0,1,4.26-5.73,21.72,21.72,0,0,1,7.15-4.3,30.19,30.19,0,0,1,10.81-1.68h22.65a29.19,29.19,0,0,1-1.25,4.48,17.72,17.72,0,0,1-2.16,4.14,10.73,10.73,0,0,1-3.27,3.06,8.79,8.79,0,0,1-4.61,1.16H204.52a17.67,17.67,0,0,0-6.07.9,9.73,9.73,0,0,0-4,2.58,10.27,10.27,0,0,0-2.2,4,23.08,23.08,0,0,0-.86,5.17h29.89a31.71,31.71,0,0,1-1.21,4.7,14.28,14.28,0,0,1-2.15,4.09,11.21,11.21,0,0,1-3.31,2.93,9.26,9.26,0,0,1-4.7,1.12h-18.6V399.9Z" transform="translate(-50.71 -52.5)"/><path class="cls-1" d="M278.7,374.32v3.2q0,2.07,0,4.14t0,3.71v5.22a28.84,28.84,0,0,1-.52,5.14,24.88,24.88,0,0,1-1.89,5.87,16.09,16.09,0,0,1-4.22,5.48,22.63,22.63,0,0,1-7.37,4.06,34.39,34.39,0,0,1-11.33,1.6H230.55a30.49,30.49,0,0,1,1.25-4.55,16,16,0,0,1,2.16-4.12,11.15,11.15,0,0,1,3.27-3,8.72,8.72,0,0,1,4.61-1.17h13q4.74,0,7.19-2a11.46,11.46,0,0,0,3.49-4.37,15.28,15.28,0,0,0,1.12-6.42H248.2q-7.84,0-17.57-.09V370.88a28.38,28.38,0,0,1,.52-5.13,24.91,24.91,0,0,1,1.9-5.81,16,16,0,0,1,4.22-5.47,22.7,22.7,0,0,1,7.37-4A34.48,34.48,0,0,1,256,348.82H278.7a29.29,29.29,0,0,1-1.25,4.48,16,16,0,0,1-2.16,4,11.16,11.16,0,0,1-3.27,3,8.77,8.77,0,0,1-4.61,1.16h-13a13.92,13.92,0,0,0-4.18.56,11.31,11.31,0,0,0-3.06,1.45,8.49,8.49,0,0,0-2.11,2.06,12.86,12.86,0,0,0-1.34,2.35,15.21,15.21,0,0,0-1.12,6.42Z" transform="translate(-50.71 -52.5)"/><path class="cls-1" d="M435.8,348.74v52.54a9.85,9.85,0,0,1-1,4.69,10.5,10.5,0,0,1-2.76,3.32,14.16,14.16,0,0,1-3.88,2.2,27.14,27.14,0,0,1-4.3,1.25V360.11a10,10,0,0,1,1-4.65,10.25,10.25,0,0,1,2.72-3.32,14.31,14.31,0,0,1,3.83-2.15,26.61,26.61,0,0,1,4.39-1.25" transform="translate(-50.71 -52.5)"/><path class="cls-1" d="M492,374.32v3.2q0,2.07,0,4.14t0,3.71v5.22a29.1,29.1,0,0,1-.52,5.14,24.79,24.79,0,0,1-1.89,5.87,16.1,16.1,0,0,1-4.22,5.48,22.6,22.6,0,0,1-7.37,4.06,34.39,34.39,0,0,1-11.33,1.6H443.9a30.61,30.61,0,0,1,1.25-4.55,16,16,0,0,1,2.15-4.12,11.2,11.2,0,0,1,3.27-3,8.74,8.74,0,0,1,4.61-1.17h13q4.74,0,7.19-2a11.46,11.46,0,0,0,3.49-4.37,15.26,15.26,0,0,0,1.12-6.42H461.55q-7.84,0-17.57-.09V370.88a28.39,28.39,0,0,1,.52-5.13,25.05,25.05,0,0,1,1.89-5.81,16.07,16.07,0,0,1,4.22-5.47,22.73,22.73,0,0,1,7.36-4,34.5,34.5,0,0,1,11.33-1.59H492a29.52,29.52,0,0,1-1.25,4.48,16.12,16.12,0,0,1-2.16,4,11.16,11.16,0,0,1-3.27,3,8.77,8.77,0,0,1-4.61,1.16h-13a13.93,13.93,0,0,0-4.18.56,11.29,11.29,0,0,0-3.06,1.45,8.43,8.43,0,0,0-2.11,2.06,12.91,12.91,0,0,0-1.33,2.35,15.21,15.21,0,0,0-1.12,6.42Z" transform="translate(-50.71 -52.5)"/><path class="cls-1" d="M543.66,348.74a26.68,26.68,0,0,1-1.25,4.39,14.31,14.31,0,0,1-2.16,3.83,10.26,10.26,0,0,1-3.31,2.71,10,10,0,0,1-4.65,1H524.1v40.66a9.85,9.85,0,0,1-1,4.69,10.34,10.34,0,0,1-2.71,3.27,14.17,14.17,0,0,1-3.83,2.15,26.37,26.37,0,0,1-4.39,1.25v-52H495.68a26.91,26.91,0,0,1,1.25-4.3,14.9,14.9,0,0,1,2.15-3.88,10.08,10.08,0,0,1,3.27-2.76,9.86,9.86,0,0,1,4.69-1h36.61Z" transform="translate(-50.71 -52.5)"/><path class="cls-1" d="M591.79,348.83v52.46a9.85,9.85,0,0,1-1,4.69,10.55,10.55,0,0,1-2.76,3.31,14.22,14.22,0,0,1-3.88,2.2,26.23,26.23,0,0,1-4.39,1.25V390.43h-24v10.94a9.65,9.65,0,0,1-3.79,8,14.91,14.91,0,0,1-3.87,2.15,26.25,26.25,0,0,1-4.4,1.25V374a29.87,29.87,0,0,1,1.72-10.85,22.74,22.74,0,0,1,4.31-7.19,18.31,18.31,0,0,1,5.73-4.26,30.47,30.47,0,0,1,5.94-2.11,24.53,24.53,0,0,1,5-.69l2.76,0Zm-12.06,28.77V361.66H570.6a30.37,30.37,0,0,0-6.07.56,11.83,11.83,0,0,0-4.69,2,9.31,9.31,0,0,0-3.06,4,16.92,16.92,0,0,0-1.08,6.51v2.83Z" transform="translate(-50.71 -52.5)"/><path class="cls-1" d="M647,348.91v52.46a9.86,9.86,0,0,1-1,4.69,10.1,10.1,0,0,1-2.76,3.27,14.94,14.94,0,0,1-3.87,2.15,26.46,26.46,0,0,1-4.39,1.25V360.88h-9.13a30.41,30.41,0,0,0-6.07.56,11.85,11.85,0,0,0-4.69,2,9.39,9.39,0,0,0-3.06,4,17.13,17.13,0,0,0-1.08,6.55v27.39a9.84,9.84,0,0,1-1,4.69,10.09,10.09,0,0,1-2.75,3.27,14,14,0,0,1-3.88,2.11,29.19,29.19,0,0,1-4.39,1.21V374.06a29.79,29.79,0,0,1,1.72-10.85,22.62,22.62,0,0,1,4.3-7.19,18.28,18.28,0,0,1,5.73-4.26,30.24,30.24,0,0,1,5.94-2.11,24.55,24.55,0,0,1,5-.69l2.76,0Z" transform="translate(-50.71 -52.5)"/><path class="cls-1" d="M665.35,400.08h35.83a29,29,0,0,1-1.25,4.48,15.3,15.3,0,0,1-2.19,4,11.55,11.55,0,0,1-3.36,3,9,9,0,0,1-4.65,1.16H653.37V374.29q0-.6,0-2.75a24.25,24.25,0,0,1,.69-4.95,29.38,29.38,0,0,1,2.11-5.89,18.91,18.91,0,0,1,4.26-5.72,21.7,21.7,0,0,1,7.15-4.3A30.22,30.22,0,0,1,678.44,349h22.65a33.69,33.69,0,0,1-1.21,4.49,16.14,16.14,0,0,1-2.11,4.15,10.68,10.68,0,0,1-3.27,3,8.83,8.83,0,0,1-4.61,1.15H678.53a17.05,17.05,0,0,0-6.59,1.08,9.55,9.55,0,0,0-4,3,11.37,11.37,0,0,0-2,4.65,30.24,30.24,0,0,0-.56,6.07Z" transform="translate(-50.71 -52.5)"/><path class="cls-1" d="M752.95,399.9a27.79,27.79,0,0,1-1.29,4.55,16.19,16.19,0,0,1-2.24,4.12,11.58,11.58,0,0,1-3.36,3,9,9,0,0,1-4.65,1.17H705.14v-38.5q0-.6,0-2.75a24.28,24.28,0,0,1,.69-5,29.47,29.47,0,0,1,2.11-5.9,19,19,0,0,1,4.26-5.73,21.71,21.71,0,0,1,7.15-4.3,30.18,30.18,0,0,1,10.81-1.68h22.65a29,29,0,0,1-1.25,4.48,17.79,17.79,0,0,1-2.15,4.14,10.69,10.69,0,0,1-3.27,3.06,8.79,8.79,0,0,1-4.61,1.16H730.21a17.65,17.65,0,0,0-6.07.9,9.7,9.7,0,0,0-4,2.58,10.3,10.3,0,0,0-2.2,4,23.14,23.14,0,0,0-.86,5.17H747a32.44,32.44,0,0,1-1.21,4.7,14.38,14.38,0,0,1-2.15,4.09,11.18,11.18,0,0,1-3.32,2.93,9.26,9.26,0,0,1-4.69,1.12H717V399.9Z" transform="translate(-50.71 -52.5)"/><path class="cls-1" d="M709.1,241.11H597.65l55.72,96.52Zm-50.78,68.18V276.13L687,259.56ZM682.08,251l-28.71,16.57L624.67,251Zm-62.36,8.56,28.71,16.58v33.15Z" transform="translate(-50.71 -52.5)"/></svg>